<?xml version="1.0" encoding="UTF-8"?>
<svg viewBox="0 0 102 21" version="1.1" xmlns="http://www.w3.org/2000/svg" xmlns:xlink="http://www.w3.org/1999/xlink">
    <title>icons8-american-express-144</title>
    <g id="🎨-Styleguide" stroke="none" stroke-width="1" fill="none" fill-rule="evenodd">
        <g id="icons8-american-express-144" fill="#FFFFFF" fill-rule="nonzero">
            <path d="M45.765,0 L39.426,14.049 L33.117,0 L25.032,0 L25.032,20.178 L16.023,0 L9.201,0 L0,20.943 L5.445,20.943 L7.458,16.269 L17.754,16.269 L19.8,20.943 L30.195,20.943 L30.195,5.388 L37.092,20.943 L41.781,20.943 L48.834,5.658 L48.834,20.943 L54,20.943 L54,0 L45.765,0 Z M9.405,11.745 L12.483,4.425 L15.681,11.745 L9.405,11.745 Z M92.649,10.239 L102,0.054 L95.349,0.054 L89.367,6.546 L83.58,0 L63,0 L63,20.946 L82.905,20.946 L89.181,14.013 L95.301,21 L101.931,21 L92.649,10.239 Z M80.184,16.548 L68.151,16.548 L68.151,12.405 L79.665,12.405 L79.665,8.436 L68.151,8.436 L68.151,4.512 L80.853,4.548 L85.932,10.239 L80.184,16.548 Z" id="Shape"></path>
        </g>
    </g>
</svg>