<?xml version="1.0" encoding="UTF-8"?>
<svg viewBox="0 0 99 60" version="1.1" xmlns="http://www.w3.org/2000/svg" xmlns:xlink="http://www.w3.org/1999/xlink">
    <title>icons8-mastercard-144</title>
    <g id="🎨-Styleguide" stroke="none" stroke-width="1" fill="none" fill-rule="evenodd">
        <g id="icons8-mastercard-144" fill-rule="nonzero">
            <path d="M69,0 C52.4314575,0 39,13.4314575 39,30 C39,46.5685425 52.4314575,60 69,60 C85.5685425,60 99,46.5685425 99,30 C99,13.4314575 85.5685425,0 69,0 Z" id="Path" fill="#FFC107"></path>
            <path d="M45.042,48 C43.65,46.149 42.453,44.148 41.514,42 L57.489,42 C58.323,40.092 58.977,38.088 59.4,36 L39.606,36 C39.21,34.062 39,32.058 39,30 L60,30 C60,27.942 59.79,25.938 59.397,24 L39.603,24 C40.029,21.912 40.68,19.908 41.514,18 L57.489,18 C56.55,15.852 55.356,13.851 53.961,12 L45.042,12 C46.353,10.26 47.832,8.634 49.485,7.215 C44.241,2.727 37.443,0 30,0 C13.431,0 0,13.431 0,30 C0,46.569 13.431,60 30,60 C39.807,60 48.486,55.275 53.958,48 L45.042,48 Z" id="Path" fill="#FF3D00"></path>
        </g>
    </g>
</svg>