<?xml version="1.0" encoding="UTF-8"?>
<svg viewBox="0 0 106 33" version="1.1" xmlns="http://www.w3.org/2000/svg" xmlns:xlink="http://www.w3.org/1999/xlink">
    <title>icons8-visa-144</title>
    <g id="🎨-Styleguide" stroke="none" stroke-width="1" fill="none" fill-rule="evenodd">
        <g id="icons8-visa-144" transform="translate(0.699000, -0.003000)" fill-rule="nonzero">
            <path d="M29.859,0.003 L21.981,23.499 C21.981,23.499 19.98,13.56 19.782,12.312 C15.297,2.079 8.679,2.649 8.679,2.649 L16.479,33.003 L16.479,32.997 L25.962,32.997 L39.075,0.003 L29.859,0.003 Z M37.368,33.003 L45.981,33.003 L51.189,0.003 L42.468,0.003 L37.368,33.003 Z M98.325,0.003 L89.262,0.003 L75.132,33.003 L83.688,33.003 L85.452,28.29 L96.24,28.29 L97.158,33.003 L104.997,33.003 L98.325,0.003 Z M87.84,21.987 L92.529,9.516 L94.983,21.987 L87.84,21.987 Z M63.408,9.621 C63.408,7.803 64.902,6.45 69.186,6.45 C71.97,6.45 75.159,8.472 75.159,8.472 L76.557,1.545 C76.557,1.545 72.483,-4.54747351e-13 68.484,-4.54747351e-13 C59.427,-4.54747351e-13 54.756,4.332 54.756,9.816 C54.756,19.734 66.693,18.375 66.693,23.469 C66.693,24.342 66,26.361 61.029,26.361 C56.043,26.361 52.752,24.534 52.752,24.534 L51.267,31.182 C51.267,31.182 54.456,33 60.618,33 C66.795,33 75.363,28.38 75.363,21.744 C75.363,13.761 63.408,13.185 63.408,9.621 Z" id="Shape" fill="#FFFFFF"></path>
            <path d="M20.937,17.838 L18.039,3.594 C18.039,3.594 16.728,0.507 13.32,0.507 C9.912,0.507 -9.09494702e-13,0.507 -9.09494702e-13,0.507 C-9.09494702e-13,0.507 16.983,5.523 20.937,17.838 Z" id="Path" fill="#F5BC00"></path>
        </g>
    </g>
</svg>