<?xml version="1.0" encoding="utf-8"?>
<!DOCTYPE svg PUBLIC "-//W3C//DTD SVG 1.1//EN" "http://www.w3.org/Graphics/SVG/1.1/DTD/svg11.dtd">
<svg xmlns="http://www.w3.org/2000/svg" xml:space="preserve" width="530.973" height="530.973">
  <path d="M320.622 16.038c-48.13-10.56-96.075-6.789-139.409 8.433l205.646 142.285-22.972-137.171c-13.77-5.688-28.211-10.245-43.265-13.547zm60.988 21.683 41.565 244.095 79.798-112.224C480.031 113.27 437.342 65.91 381.61 37.721zm-216.986-6.767C107.809 55.459 60.469 100.197 33.57 158.183l248.56-46.176-117.506-81.053zm343.902 153.651L367.76 388.57l135.075-25.795c5.425-13.334 9.788-27.293 12.978-41.823l1.161-5.589c8.864-45.206 5.253-89.992-8.448-130.758zM165.219 149.9 26.793 174.226c-4.543 11.86-8.283 24.22-11.088 37.004-10.638 48.487-6.713 96.79 8.795 140.379L165.219 149.9zm-57.437 107.234L31.555 369.377c24.248 54.834 67.436 100.631 123.173 127.418l-46.946-239.661zm388.267 120.855-242.225 46.989 111.375 76.992c56.26-23.78 103.376-67.362 130.85-123.981zm-349.267-7.248 23.439 132.869c12.988 5.211 26.556 9.434 40.676 12.53 47.857 10.5 95.541 6.83 138.681-8.18L146.782 370.741z"/>
</svg>