<svg xmlns="http://www.w3.org/2000/svg"  viewBox="0 0 40 40" width="80px" height="80px"><path fill="#bae0bd" d="M6.5 37.5L6.5 2.5 24.793 2.5 33.5 11.207 33.5 37.5z"/><path fill="#5e9c76" d="M24.586,3L33,11.414V37H7V3H24.586 M25,2H6v36h28V11L25,2L25,2z"/><path fill="#fff" d="M24.5 11.5L24.5 2.5 24.793 2.5 33.5 11.207 33.5 11.5z"/><path fill="#5e9c76" d="M25,3.414L32.586,11H25V3.414 M25,2h-1v10h10v-1L25,2L25,2z"/><path fill="#44825d" d="M16.399 26.487c-.247.117-.729.208-1.313.208-2.249 0-3.314-1.833-3.314-4.329 0-3.302 1.833-4.589 3.536-4.589.598 0 1.014.117 1.183.234l-.286 1.43c-.195-.091-.416-.169-.793-.169-.962 0-1.833.832-1.833 3.003 0 2.093.793 2.912 1.833 2.912.286 0 .611-.065.819-.13L16.399 26.487zM17.465 24.875c.352.195.962.338 1.443.338.793 0 1.196-.416 1.196-.988 0-.637-.391-.949-1.132-1.43-1.195-.728-1.65-1.651-1.65-2.444 0-1.404.936-2.574 2.756-2.574.585 0 1.131.156 1.378.312l-.272 1.469c-.247-.156-.624-.299-1.105-.299-.729 0-1.079.442-1.079.91 0 .52.26.793 1.196 1.365 1.17.702 1.586 1.586 1.586 2.509 0 1.599-1.184 2.652-2.886 2.652-.702 0-1.379-.182-1.678-.351L17.465 24.875zM24.329 26.617l-1.95-8.762h1.885l.624 3.783c.144.949.325 2.015.442 3.042h.025c.117-1.04.261-2.093.416-3.081l.599-3.744h1.872l-2.002 8.762H24.329z"/></svg>