<?xml version="1.0" encoding="UTF-8"?>
<svg width="20px" height="20px" viewBox="0 0 20 20" version="1.1" xmlns="http://www.w3.org/2000/svg" xmlns:xlink="http://www.w3.org/1999/xlink">
    <title>Link</title>
    <g id="✨-Symbols" stroke="none" stroke-width="1" fill="none" fill-rule="evenodd">
        <g id="Component/icon/ic_link" transform="translate(-2.000000, -2.000000)">
            <g id="iconspace_Hyperlink_25px" transform="translate(2.000000, 2.000000)">
                <polygon id="Path" points="0 0 20 0 20 20 0 20"></polygon>
                <path d="M16.0152801,2.84699642 L17.1530036,3.98471988 C18.0156655,4.84738177 18.0156655,6.24603304 17.1530036,7.10869493 L14.3086949,9.95300358 C13.446033,10.8156655 12.0473818,10.8156655 11.1847199,9.95300358 L11.047,9.816 L9.816,11.047 L9.95300358,11.1847199 C10.8156655,12.0473818 10.8156655,13.446033 9.95300358,14.3086949 L7.10869493,17.1530036 C6.24603304,18.0156655 4.84738177,18.0156655 3.98471988,17.1530036 L2.84699642,16.0152801 C1.98433453,15.1526182 1.98433453,13.753967 2.84699642,12.8913051 L5.69130507,10.0469964 C6.55396696,9.18433453 7.95261823,9.18433453 8.81528012,10.0469964 L8.967,10.198 L10.198,8.967 L10.0469964,8.81528012 C9.18433453,7.95261823 9.18433453,6.55396696 10.0469964,5.69130507 L12.8913051,2.84699642 C13.753967,1.98433453 15.1526182,1.98433453 16.0152801,2.84699642 Z M6.5398332,10.8955246 L3.69552456,13.7398332 C3.30149181,14.1338659 3.30149181,14.7727192 3.69552456,15.166752 L4.83324802,16.3044754 C5.22728076,16.6985082 5.86613406,16.6985082 6.2601668,16.3044754 L9.10447544,13.4601668 C9.49850819,13.0661341 9.49850819,12.4272808 9.10447544,12.033248 L8.967,11.896 L8.03147551,12.8314755 C7.7765694,13.0863816 7.41668375,13.0652119 7.18294738,12.8314755 C6.949211,12.5977391 6.92804126,12.2378535 7.18294738,11.9829474 L8.118,11.047 L7.96675198,10.8955246 C7.57271924,10.5014918 6.93386594,10.5014918 6.5398332,10.8955246 Z M13.7398332,3.69552456 L10.8955246,6.5398332 C10.5014918,6.93386594 10.5014918,7.57271924 10.8955246,7.96675198 L11.047,8.118 L11.9829474,7.18294738 C12.2378535,6.92804126 12.5977391,6.949211 12.8314755,7.18294738 C13.0652119,7.41668375 13.0863816,7.7765694 12.8314755,8.03147551 L11.896,8.967 L12.033248,9.10447544 C12.4272808,9.49850819 13.0661341,9.49850819 13.4601668,9.10447544 L16.3044754,6.2601668 C16.6985082,5.86613406 16.6985082,5.22728076 16.3044754,4.83324802 L15.166752,3.69552456 C14.7727192,3.30149181 14.1338659,3.30149181 13.7398332,3.69552456 Z" id="Combined-Shape" fill="#92929D"></path>
            </g>
        </g>
    </g>
</svg>