<?xml version="1.0" encoding="UTF-8"?>
<svg aria-hidden="true" width="24px" height="24px" viewBox="0 0 24 24" version="1.1" xmlns="http://www.w3.org/2000/svg" xmlns:xlink="http://www.w3.org/1999/xlink">
    <title>Component/icon/ic_Spreadsheets</title>
    <g id="Component/icon/ic_Spreadsheets" stroke="none" stroke-width="1" fill-rule="evenodd">
        <path d="M10.3,8.3 L13.7,8.3 L13.7,4 L10.3,4 L10.3,8.3 L10.3,8.3 Z M10.3,10.3 L10.3,20 L13.7,20 L13.7,10.3 L10.3,10.3 Z M20,8.3 L20,5 C20,4.44771525 19.5522847,4 19,4 L15.7,4 L15.7,8.3 L20,8.3 L20,8.3 Z M20,10.3 L15.7,10.3 L15.7,20 L19,20 C19.5522847,20 20,19.5522847 20,19 L20,10.3 Z M4,8.3 L8.3,8.3 L8.3,4 L5,4 C4.44771525,4 4,4.44771525 4,5 L4,8.3 L4,8.3 Z M4,10.3 L4,19 C4,19.5522847 4.44771525,20 5,20 L8.3,20 L8.3,10.3 L4,10.3 Z M5,2 L19,2 C20.6568542,2 22,3.34314575 22,5 L22,19 C22,20.6568542 20.6568542,22 19,22 L5,22 C3.34314575,22 2,20.6568542 2,19 L2,5 C2,3.34314575 3.34314575,2 5,2 Z" id="Shape" transform="translate(12.000000, 12.000000) rotate(-90.000000) translate(-12.000000, -12.000000) "></path>
    </g>
</svg>