<svg width="100%" viewBox="0 0 116 80" fill="currentColor" xmlns="http://www.w3.org/2000/svg">
<path fill-rule="evenodd" clip-rule="evenodd" d="M7 16.3803V7H62.083C62.559 9.83771 65.027 12 68 12C70.973 12 73.441 9.83771 73.917 7H109V16.0758C93.2914 27.7637 93.201 51.6221 109 63.3907V73H73.917C73.441 70.1623 70.973 68 68 68C65.027 68 62.559 70.1623 62.083 73H7V63.1491C21.5048 51.0685 21.5872 28.5416 7 16.3803ZM68 80L6 80C2.68629 80 0 77.3137 0 74V60.3693C0 59.9022 0.231238 59.4655 0.617517 59.2029C14.1436 50.0094 14.3795 30.1555 1.07557 20.6432L0.600261 20.3034C0.22354 20.034 0 19.5994 0 19.1363V6C0 2.68629 2.68629 0 6 0H68H110C113.314 0 116 2.68629 116 6V19.0987C116 19.5791 115.746 20.0236 115.331 20.2668C100.661 28.878 100.425 50.0051 114.898 58.9425L115.348 59.2201C115.753 59.4703 116 59.9126 116 60.3888V74C116 77.3137 113.314 80 110 80L68 80ZM68 29C71.3137 29 74 26.3137 74 23C74 19.6863 71.3137 17 68 17C64.6863 17 62 19.6863 62 23C62 26.3137 64.6863 29 68 29ZM68 46C71.3137 46 74 43.3137 74 40C74 36.6863 71.3137 34 68 34C64.6863 34 62 36.6863 62 40C62 43.3137 64.6863 46 68 46ZM74 57C74 60.3137 71.3137 63 68 63C64.6863 63 62 60.3137 62 57C62 53.6863 64.6863 51 68 51C71.3137 51 74 53.6863 74 57Z" fill="currentColor"/>
</svg>
