<svg fill="#000000" xmlns="http://www.w3.org/2000/svg"  viewBox="0 0 512 512" width="64px" height="64px"><path d="M 258.91406 38.402344 A 10 10 0 0 0 251.66406 41.048828 L 180.25586 107.0625 A 10 10 0 1 0 193.83203 121.74805 L 248.45117 71.253906 L 248.45117 305.71875 A 10 10 0 0 0 268.45117 305.71875 L 268.45117 71.253906 L 323.07227 121.74805 A 10 10 0 1 0 336.64844 107.0625 L 265.24023 41.048828 A 10 10 0 0 0 258.91406 38.402344 z M 126.42578 183.11523 A 50.057 50.057 0 0 0 76.425781 233.11523 L 76.425781 423.60742 A 50.057 50.057 0 0 0 126.42578 473.60742 L 385.57422 473.60742 A 50.057 50.057 0 0 0 435.57422 423.60742 L 435.57422 233.11523 A 50.056 50.056 0 0 0 385.57422 183.11523 L 337.10938 183.11523 A 10 10 0 0 0 337.10938 203.11523 L 385.57422 203.11523 A 30.034 30.034 0 0 1 415.57422 233.11523 L 415.57422 423.60742 A 30.034 30.034 0 0 1 385.57422 453.60742 L 126.42578 453.60742 A 30.034 30.034 0 0 1 96.425781 423.60742 L 96.425781 233.11523 A 30.034 30.034 0 0 1 126.42578 203.11523 L 174.89062 203.11523 A 10 10 0 0 0 174.89062 183.11523 L 126.42578 183.11523 z"/></svg>